<svg xmlns="http://www.w3.org/2000/svg" viewBox="0 0 300 250" width="300" height="250">
  <rect width="300" height="250" fill="#1f2937"/>
  <!-- Floor line -->
  <line x1="50" y1="240" x2="250" y2="240" stroke="#374151" stroke-width="1"/>
  <!-- Parallel bars -->
  <!-- Left bar -->
  <line x1="100" y1="95" x2="100" y2="100" stroke="#6b7280" stroke-width="5" stroke-linecap="round"/>
  <rect x="93" y="95" width="14" height="6" rx="2" fill="#6b7280"/>
  <line x1="93" y1="101" x2="93" y2="240" stroke="#6b7280" stroke-width="4"/>
  <line x1="107" y1="101" x2="107" y2="240" stroke="#6b7280" stroke-width="4"/>
  <!-- Right bar -->
  <line x1="200" y1="95" x2="200" y2="100" stroke="#6b7280" stroke-width="5" stroke-linecap="round"/>
  <rect x="193" y="95" width="14" height="6" rx="2" fill="#6b7280"/>
  <line x1="193" y1="101" x2="193" y2="240" stroke="#6b7280" stroke-width="4"/>
  <line x1="207" y1="101" x2="207" y2="240" stroke="#6b7280" stroke-width="4"/>
  <!-- Bar surface (horizontal) -->
  <line x1="85" y1="95" x2="115" y2="95" stroke="#6b7280" stroke-width="5" stroke-linecap="round"/>
  <line x1="185" y1="95" x2="215" y2="95" stroke="#6b7280" stroke-width="5" stroke-linecap="round"/>
  <!-- Person on bars - front view, arms bent (dip position) -->
  <!-- Chest muscle highlight (amber) -->
  <ellipse cx="140" cy="120" rx="8" ry="12" fill="#f59e0b" opacity="0.6"/>
  <ellipse cx="160" cy="120" rx="8" ry="12" fill="#f59e0b" opacity="0.6"/>
  <!-- Body mass - torso -->
  <path d="M135 100 L165 100 L168 175 L132 175 Z" fill="#374151" stroke="#e5e7eb" stroke-width="2"/>
  <!-- Head -->
  <circle cx="150" cy="78" r="18" fill="#374151" stroke="#e5e7eb" stroke-width="2"/>
  <!-- Shoulders -->
  <line x1="118" y1="105" x2="182" y2="105" stroke="#e5e7eb" stroke-width="3" stroke-linecap="round"/>
  <!-- Left upper arm - bent, hands on bars -->
  <line x1="118" y1="105" x2="108" y2="80" stroke="#e5e7eb" stroke-width="3" stroke-linecap="round"/>
  <!-- Left tricep (red) -->
  <ellipse cx="110" cy="92" rx="5" ry="12" fill="#ef4444" opacity="0.8" transform="rotate(15 110 92)"/>
  <!-- Left forearm to bar -->
  <line x1="108" y1="80" x2="100" y2="95" stroke="#e5e7eb" stroke-width="3" stroke-linecap="round"/>
  <!-- Right upper arm -->
  <line x1="182" y1="105" x2="192" y2="80" stroke="#e5e7eb" stroke-width="3" stroke-linecap="round"/>
  <!-- Right tricep (red) -->
  <ellipse cx="190" cy="92" rx="5" ry="12" fill="#ef4444" opacity="0.8" transform="rotate(-15 190 92)"/>
  <!-- Right forearm to bar -->
  <line x1="192" y1="80" x2="200" y2="95" stroke="#e5e7eb" stroke-width="3" stroke-linecap="round"/>
  <!-- Hands gripping bars -->
  <circle cx="100" cy="95" r="4" fill="#e5e7eb"/>
  <circle cx="200" cy="95" r="4" fill="#e5e7eb"/>
  <!-- Legs hanging -->
  <line x1="140" y1="175" x2="135" y2="220" stroke="#e5e7eb" stroke-width="3" stroke-linecap="round"/>
  <line x1="160" y1="175" x2="165" y2="220" stroke="#e5e7eb" stroke-width="3" stroke-linecap="round"/>
  <!-- Feet -->
  <line x1="135" y1="220" x2="130" y2="230" stroke="#e5e7eb" stroke-width="3" stroke-linecap="round"/>
  <line x1="165" y1="220" x2="170" y2="230" stroke="#e5e7eb" stroke-width="3" stroke-linecap="round"/>
</svg>