<svg xmlns="http://www.w3.org/2000/svg" viewBox="0 0 300 250" width="300" height="250">
  <rect width="300" height="250" fill="#1f2937"/>
  <!-- Floor -->
  <line x1="30" y1="230" x2="270" y2="230" stroke="#374151" stroke-width="1"/>

  <!-- Tuck Planche - arms straight, body elevated, knees tucked -->
  <!-- Parallel bars or floor -->
  <rect x="90" y="165" width="120" height="4" rx="2" fill="#6b7280"/>

  <!-- Hands on bars/floor -->
  <circle cx="115" cy="164" r="4" fill="#e5e7eb"/>
  <circle cx="185" cy="164" r="4" fill="#e5e7eb"/>

  <!-- Arms straight (locked out) -->
  <line x1="115" y1="160" x2="125" y2="120" stroke="#e5e7eb" stroke-width="5" stroke-linecap="round"/>
  <line x1="185" y1="160" x2="175" y2="120" stroke="#e5e7eb" stroke-width="5" stroke-linecap="round"/>

  <!-- Front Delts - PRIMARY (red) -->
  <ellipse cx="128" cy="115" rx="8" ry="10" fill="#ef4444" opacity="0.7"/>
  <ellipse cx="172" cy="115" rx="8" ry="10" fill="#ef4444" opacity="0.7"/>

  <!-- Shoulders/Upper torso (leaning forward) -->
  <path d="M130,110 L130,140 L170,140 L170,110 Z" fill="none" stroke="#e5e7eb" stroke-width="2.5"/>

  <!-- Head -->
  <circle cx="150" cy="98" r="12" fill="none" stroke="#e5e7eb" stroke-width="2.5"/>

  <!-- Chest - secondary (amber) -->
  <ellipse cx="150" cy="120" rx="12" ry="8" fill="#f59e0b" opacity="0.5"/>

  <!-- Abs - secondary (amber) -->
  <rect x="135" y="128" width="30" height="12" rx="3" fill="#f59e0b" opacity="0.5"/>

  <!-- Hips (elevated, behind arms) -->
  <ellipse cx="150" cy="143" rx="12" ry="5" fill="none" stroke="#e5e7eb" stroke-width="2"/>

  <!-- Tucked legs (knees to chest) -->
  <path d="M142,145 Q135,155 140,130" fill="none" stroke="#e5e7eb" stroke-width="3" stroke-linecap="round"/>
  <path d="M158,145 Q165,155 160,130" fill="none" stroke="#e5e7eb" stroke-width="3" stroke-linecap="round"/>

  <!-- Feet tucked -->
  <circle cx="140" cy="128" r="3" fill="#e5e7eb"/>
  <circle cx="160" cy="128" r="3" fill="#e5e7eb"/>

  <!-- Timer icon -->
  <circle cx="55" cy="110" r="14" fill="none" stroke="#4b5563" stroke-width="1.5"/>
  <line x1="55" y1="100" x2="55" y2="110" stroke="#4b5563" stroke-width="1.5" stroke-linecap="round"/>
  <line x1="55" y1="110" x2="63" y2="114" stroke="#4b5563" stroke-width="1.5" stroke-linecap="round"/>

  <text x="150" y="210" text-anchor="middle" fill="#9ca3af" font-family="Arial,sans-serif" font-size="11" font-weight="bold">TUCK PLANCHE</text>
</svg>