<svg xmlns="http://www.w3.org/2000/svg" viewBox="0 0 300 250" width="300" height="250">
  <rect width="300" height="250" fill="#1f2937"/>
  <!-- Floor -->
  <line x1="50" y1="230" x2="250" y2="230" stroke="#374151" stroke-width="1"/>

  <!-- Jump Squat - mid-air explosive phase -->
  <!-- Head -->
  <circle cx="150" cy="55" r="12" fill="none" stroke="#e5e7eb" stroke-width="2.5"/>
  <!-- Neck -->
  <line x1="150" y1="67" x2="150" y2="75" stroke="#e5e7eb" stroke-width="2.5"/>
  <!-- Torso -->
  <path d="M140,75 L140,130 L160,130 L160,75 Z" fill="none" stroke="#e5e7eb" stroke-width="2.5"/>

  <!-- Arms extended up -->
  <line x1="140" y1="82" x2="120" y2="60" stroke="#e5e7eb" stroke-width="2.5" stroke-linecap="round"/>
  <line x1="160" y1="82" x2="180" y2="60" stroke="#e5e7eb" stroke-width="2.5" stroke-linecap="round"/>

  <!-- Hips -->
  <ellipse cx="150" cy="133" rx="14" ry="6" fill="none" stroke="#e5e7eb" stroke-width="2"/>

  <!-- Upper legs (slightly tucked in air) -->
  <line x1="142" y1="136" x2="132" y2="170" stroke="#e5e7eb" stroke-width="3" stroke-linecap="round"/>
  <line x1="158" y1="136" x2="168" y2="170" stroke="#e5e7eb" stroke-width="3" stroke-linecap="round"/>

  <!-- Primary: Quads (red) -->
  <polygon points="140,138 130,168 138,172 146,140" fill="#ef4444" opacity="0.7"/>
  <polygon points="160,138 170,168 162,172 154,140" fill="#ef4444" opacity="0.7"/>

  <!-- Secondary: Glutes (amber) -->
  <ellipse cx="150" cy="134" rx="16" ry="8" fill="#f59e0b" opacity="0.55"/>

  <!-- Lower legs (extended) -->
  <line x1="132" y1="170" x2="130" y2="200" stroke="#e5e7eb" stroke-width="3" stroke-linecap="round"/>
  <line x1="168" y1="170" x2="170" y2="200" stroke="#e5e7eb" stroke-width="3" stroke-linecap="round"/>

  <!-- Tertiary: Calves -->
  <ellipse cx="131" cy="188" rx="4" ry="10" fill="#f59e0b" opacity="0.4"/>
  <ellipse cx="169" cy="188" rx="4" ry="10" fill="#f59e0b" opacity="0.4"/>

  <!-- Feet (pointed down, airborne) -->
  <line x1="130" y1="200" x2="130" y2="208" stroke="#e5e7eb" stroke-width="2.5" stroke-linecap="round"/>
  <line x1="170" y1="200" x2="170" y2="208" stroke="#e5e7eb" stroke-width="2.5" stroke-linecap="round"/>

  <!-- Motion arrows (upward) -->
  <path d="M 195 130 L 195 110" stroke="#4b5563" stroke-width="1.5" stroke-linecap="round"/>
  <path d="M 192 115 L 195 110 L 198 115" stroke="#4b5563" stroke-width="1.5" fill="none" stroke-linecap="round"/>

  <text x="150" y="18" text-anchor="middle" fill="#9ca3af" font-family="Arial,sans-serif" font-size="11" font-weight="bold">JUMP SQUAT</text>
</svg>