<svg xmlns="http://www.w3.org/2000/svg" viewBox="0 0 300 250" width="300" height="250">
  <rect width="300" height="250" fill="#1f2937"/>

  <!-- Leg Extension - seated, extending legs -->

  <!-- Machine -->
  <!-- Seat -->
  <rect x="70" y="140" width="80" height="8" rx="2" fill="#6b7280"/>
  <!-- Back rest -->
  <rect x="68" y="80" width="8" height="65" rx="2" fill="#6b7280"/>
  <!-- Machine base/post -->
  <rect x="130" y="140" width="8" height="90" rx="2" fill="#6b7280"/>
  <rect x="90" y="225" width="80" height="5" rx="2" fill="#6b7280"/>
  <!-- Shin pad lever arm -->
  <line x1="138" y1="155" x2="210" y2="130" stroke="#6b7280" stroke-width="3"/>
  <!-- Shin pad (roller) -->
  <ellipse cx="213" cy="128" rx="8" ry="5" fill="#6b7280" transform="rotate(-15,213,128)"/>
  <!-- Weight stack hint -->
  <rect x="132" y="170" width="12" height="40" rx="1" fill="none" stroke="#6b7280" stroke-width="1"/>
  <line x1="132" y1="180" x2="144" y2="180" stroke="#6b7280" stroke-width="1"/>
  <line x1="132" y1="190" x2="144" y2="190" stroke="#6b7280" stroke-width="1"/>
  <line x1="132" y1="200" x2="144" y2="200" stroke="#6b7280" stroke-width="1"/>

  <!-- Primary muscles: Quads (red) -->
  <polygon points="118,148 125,148 215,125 210,118 130,142" fill="#ef4444" opacity="0.7"/>

  <!-- Figure seated -->
  <!-- Head -->
  <circle cx="100" cy="68" r="12" fill="none" stroke="#e5e7eb" stroke-width="2.5"/>

  <!-- Torso (upright, seated) -->
  <path d="M100,80 L94,86 L92,140 L108,140 L106,86 Z" fill="none" stroke="#e5e7eb" stroke-width="2"/>

  <!-- Upper legs (on seat) -->
  <path d="M95,140 L120,142 L138,148" fill="none" stroke="#e5e7eb" stroke-width="3"/>

  <!-- Lower legs (extended, against shin pad) -->
  <path d="M138,148 L175,135 L205,125" fill="none" stroke="#e5e7eb" stroke-width="3"/>

  <!-- Arms gripping seat handles -->
  <path d="M96,90 L82,110 L80,130" fill="none" stroke="#e5e7eb" stroke-width="2"/>
  <path d="M104,90 L115,110 L118,130" fill="none" stroke="#e5e7eb" stroke-width="2"/>

  <!-- Label -->
  <text x="150" y="18" text-anchor="middle" fill="#9ca3af" font-family="Arial,sans-serif" font-size="11" font-weight="bold">LEG EXTENSION</text>
</svg>